<svg width="10" height="10" viewBox="0 0 10 10" fill="none" xmlns="http://www.w3.org/2000/svg">
<g clip-path="url(#clip0_601_265)">
<path fill-rule="evenodd" clip-rule="evenodd" d="M2.0777 2.02107C2.8636 1.25899 3.95018 0.787109 5.14984 0.787109C6.3495 0.787109 7.43606 1.25899 8.22197 2.02107C9.00787 2.78316 9.4945 3.83682 9.4945 5.00012C9.4945 6.16342 9.00787 7.21706 8.22197 7.97915C7.43606 8.74124 6.3495 9.21312 5.14984 9.21312C3.95018 9.21312 2.8636 8.74124 2.0777 7.97915C1.2918 7.21706 0.805176 6.16342 0.805176 5.00012C0.805176 3.83682 1.2918 2.78316 2.0777 2.02107ZM5.14984 1.37497C4.11743 1.37497 3.18325 1.78041 2.50637 2.43675C1.82951 3.09312 1.41141 3.999 1.41141 5.00012C1.41141 6.00124 1.82951 6.90712 2.50637 7.56348C3.18325 8.21982 4.11743 8.62527 5.14984 8.62527C6.18225 8.62527 7.11644 8.21982 7.79331 7.56348C8.47015 6.90712 8.88828 6.00124 8.88828 5.00012C8.88828 3.999 8.47015 3.09309 7.79331 2.43675C7.11644 1.78041 6.18225 1.37497 5.14984 1.37497Z" fill="#BABEC3"/>
<path fill-rule="evenodd" clip-rule="evenodd" d="M5.15021 2.45264C5.42921 2.45264 5.65539 2.67197 5.65539 2.94252C5.65539 3.21308 5.42921 3.43241 5.15021 3.43241C4.87121 3.43241 4.64502 3.21308 4.64502 2.94252C4.64502 2.67197 4.87121 2.45264 5.15021 2.45264Z" fill="#BABEC3"/>
<path fill-rule="evenodd" clip-rule="evenodd" d="M4.54346 4.21627C4.54346 4.05394 4.67914 3.92236 4.84655 3.92236H5.25071C5.41811 3.92236 5.55383 4.05394 5.55383 4.21627V6.95964C5.55383 7.12197 5.41811 7.25358 5.25071 7.25358C5.0833 7.25358 4.94761 7.12197 4.94761 6.95964V4.51021H4.84655C4.67914 4.51021 4.54346 4.37861 4.54346 4.21627Z" fill="#BABEC3"/>
<path fill-rule="evenodd" clip-rule="evenodd" d="M4.24023 6.95947C4.24023 6.79713 4.37595 6.66553 4.54336 6.66553H5.95789C6.1253 6.66553 6.26102 6.79713 6.26102 6.95947C6.26102 7.1218 6.1253 7.25338 5.95789 7.25338H4.54336C4.37595 7.25338 4.24023 7.1218 4.24023 6.95947Z" fill="#BABEC3"/>
</g>
<defs>
<clipPath id="clip0_601_265">
<rect width="10" height="10" fill="white"/>
</clipPath>
</defs>
</svg>
